<svg xmlns="http://www.w3.org/2000/svg" id="Layer_1" data-name="Layer 1" viewBox="216.08 218.74 767.69 220.28"><defs><style>.cls-1{fill:#fff;}</style></defs><path class="cls-1" d="M380.74,385.93q0,1.23-.62,15.05t-.61,26.42v10.14q-30.11-1.85-119.2-1.84h-38.4q-5.83,0-5.83-2.47c0-1.1.61-1.75,1.84-1.93q.92,0,11.67-.82,8-.62,9.68-3.39T241,412.61V239.43q0-8.93-2.61-10.63t-16.74-1.69q-4.92,0-4.92-2.62t6.76-2.6H353.7a107.19,107.19,0,0,0,16.9-1.23q.61,13.2,2.76,36.55l1.23,13.21a20.71,20.71,0,0,1,.31,4c0,2.05-.92,3.07-2.76,3.07q-3.39,0-4.92-7.73-5.84-27.82-19.05-35.25Q338.35,229,296.56,229H271.37v90.32h7.38q34.39,0,41.93-5.22T331,283.63q.61-6.45,3.38-6.45,3.38,0,3.38,5.53T337.12,299q-.63,10.75-.62,16.29,0,32.87,1,45.15c.17,2.05.25,3.8.25,5.23q0,4-3.37,4c-1.43,0-2.39-.87-2.9-2.61s-1.38-7.42-2.6-17.05q-2.44-18.12-15-22.43-5.5-1.85-28.74-1.84H271.37V428.63q67.59,0,79.26-2.73,20.28-4.54,23-38.84.61-7.57,4-7.58C379.71,379.48,380.74,381.63,380.74,385.93Z"/><path class="cls-1" d="M983.77,385.93q0,1.23-.62,15.05t-.61,26.42v10.14q-30.1-1.85-119.19-1.84H824.94q-5.84,0-5.83-2.47c0-1.1.61-1.75,1.84-1.93.62,0,4.5-.27,11.68-.82q8-.62,9.67-3.39T844,412.61V239.43q0-8.93-2.61-10.63t-16.74-1.69q-4.92,0-4.92-2.62t6.76-2.6H956.74a107.15,107.15,0,0,0,16.89-1.23q.61,13.2,2.77,36.55l1.23,13.21a21.66,21.66,0,0,1,.3,4c0,2.05-.92,3.07-2.76,3.07q-3.39,0-4.92-7.73-5.84-27.82-19-35.25Q941.37,229,899.6,229H874.41v90.32h7.37q34.4,0,41.93-5.22T934,283.63q.62-6.45,3.38-6.45,3.38,0,3.38,5.53T940.15,299q-.63,10.75-.62,16.29,0,32.87,1,45.15c.16,2.05.24,3.8.24,5.23q0,4-3.36,4-2.14,0-2.91-2.61T931.89,350q-2.45-18.12-15-22.43-5.5-1.85-28.74-1.84H874.41V428.63q67.58,0,79.25-2.73,20.28-4.54,23-38.84.62-7.57,4-7.58C982.74,379.48,983.77,381.63,983.77,385.93Z"/><path class="cls-1" d="M431.56,346c0,.29-.21.43-.61.43h-.51a66.79,66.79,0,0,0-6.94-.15c-.85,0-1.7,0-2.55.1-.45,0-1.13.05-2.05.05-.44,0-.66-.15-.66-.46s.44-.42,1.33-.46q2,0,2.4-.48a6.72,6.72,0,0,0,.35-2.95V315.15a7.27,7.27,0,0,0-.26-2.81c-.2-.34-1.15-.55-2.84-.62-.65,0-1-.15-1-.36s.21-.4.62-.4h6.94l3,.05,2-.05c.54,0,.82.14.82.43s-.76.42-2.27.49c-.87,0-1.39.19-1.58.46a4.72,4.72,0,0,0-.28,2.14v27.25a9.1,9.1,0,0,0,.25,3.16c.37.37,1.48.59,3.32.66C431.37,345.55,431.56,345.7,431.56,346Z"/><path class="cls-1" d="M478,311.47c0,.34-.43.49-1.28.46h-2c-.54,0-.86.09-1,.28a5.32,5.32,0,0,0-.15,1.71v29.34c0,1.8,0,2.85-.05,3.16s-.14.46-.3.46-.45-.19-.72-.56L466,336.77q-5.67-8.36-13.79-20.86v28.57a.9.9,0,0,0,.78.84,20.45,20.45,0,0,0,3.45.23c.45,0,.67.14.67.41s-.44.51-1.33.51c-.3,0-1.27-.05-2.9-.15-.55,0-1.08-.05-1.59-.05l-.89.1c-.63.07-1.59.1-2.88.1H447c-.79,0-1.18-.15-1.18-.46s.34-.46,1-.46a9.83,9.83,0,0,0,3.5-.38c.32-.22.48-.95.48-2.17V317.8c0-2.82-.57-4.59-1.73-5.31a5.9,5.9,0,0,0-2.91-.51c-.88,0-1.33-.18-1.33-.54s.26-.48.77-.48c.68,0,1.55,0,2.6.1l1.69.1c.1,0,.57,0,1.42-.05q1.69,0,3.27-.15l17.6,26.27v-22.7a17.65,17.65,0,0,0-.05-1.91.67.67,0,0,0-.41-.51,8.62,8.62,0,0,0-2.45-.18c-1.22,0-1.83-.15-1.83-.46s.41-.51,1.22-.51h8.22C477.66,311,478,311.13,478,311.47Z"/><path class="cls-1" d="M525.49,328.72q0,9-6.28,14-4.59,3.67-12.29,3.68H493.09c-.65,0-1-.17-1-.51s.54-.46,1.63-.46c1.4,0,2.26-.25,2.61-.77a5.35,5.35,0,0,0,.2-1.93v-27.5c0-1.67-.13-2.64-.38-2.91s-1.13-.41-2.63-.41c-.78,0-1.17-.19-1.17-.56s.28-.41.86-.41h8.88q9.18,0,13,1.28a13.84,13.84,0,0,1,7.5,6.06A19.06,19.06,0,0,1,525.49,328.72Zm-5.72-.21q0-8.49-3.31-12.46t-10.36-4c-2.28,0-3.66.24-4.13.72a5.19,5.19,0,0,0-.31,2.45v27.23a10.67,10.67,0,0,0,.08,1.74.79.79,0,0,0,.43.51c.82.41,2.54.62,5.16.62a11.16,11.16,0,0,0,8.87-3.89Q519.77,337.37,519.77,328.51Z"/><path class="cls-1" d="M554.62,346c0,.29-.2.43-.61.43h-.51a66.64,66.64,0,0,0-6.94-.15c-.85,0-1.7,0-2.55.1-.44,0-1.12.05-2,.05-.44,0-.66-.15-.66-.46s.44-.42,1.32-.46q2,0,2.4-.48a6.5,6.5,0,0,0,.36-2.95V315.15a7.5,7.5,0,0,0-.26-2.81c-.21-.34-1.15-.55-2.84-.62-.66,0-1-.15-1-.36s.2-.4.61-.4h6.94l3,.05,1.95-.05c.55,0,.82.14.82.43s-.76.42-2.27.49c-.86,0-1.39.19-1.58.46a4.72,4.72,0,0,0-.28,2.14v27.25a9.1,9.1,0,0,0,.25,3.16c.38.37,1.48.59,3.32.66C554.44,345.55,554.62,345.7,554.62,346Z"/><path class="cls-1" d="M599.37,335c0-.07,0,.39-.1,1.38-.14,2-.21,3.88-.21,5.71,0,.21,0,.62.11,1.25s.1,1.39.1,2.27v.46c0,.45-.14.67-.41.67s-.51-.26-.71-.77a5.34,5.34,0,0,0-1.43-2.19,13,13,0,0,1-8.83,3.21,16.31,16.31,0,0,1-12.42-5.23,18.44,18.44,0,0,1-4.93-13.19q0-8,4.52-13.09a14.88,14.88,0,0,1,11.66-5.07,15.93,15.93,0,0,1,4.15.43,17.78,17.78,0,0,1,3.86,1.76,3.89,3.89,0,0,0,1.68.67c.31,0,.59-.28.87-.82.44-.95.8-1.43,1.07-1.43a.37.37,0,0,1,.41.41,4.06,4.06,0,0,1-.1.66,48.21,48.21,0,0,0-.57,9.19,2.23,2.23,0,0,1-.15,1.12.56.56,0,0,1-.41.15c-.34,0-.56-.32-.66-1a17.16,17.16,0,0,0-1.89-6.07c-1.67-2.72-4.28-4.08-7.86-4.08a8.24,8.24,0,0,0-6.53,2.75q-4.33,4.95-4.33,14.5,0,8.52,3.57,13.21a9.87,9.87,0,0,0,8.26,4.08,9.3,9.3,0,0,0,4.85-1.3,8.79,8.79,0,0,0,3.37-3.55,20.84,20.84,0,0,0,1.89-5.66c.13-.82.35-1.22.66-1.22S599.37,334.53,599.37,335Z"/><path class="cls-1" d="M647,346.09c0,.29-.25.43-.76.43a8.36,8.36,0,0,1-.92,0l-6.48-.2-6.48.2a6.1,6.1,0,0,1-.77,0c-.68,0-1-.18-1-.53s.46-.59,1.38-.59c3,0,4.49-.33,4.49-.9a2.5,2.5,0,0,0-.1-.4l-.42-1.35-.26-.71c-.31-1.06-1-3.39-2.24-7H622.48q-3.06,8.16-3.06,9.39a.78.78,0,0,0,.61.87c.11,0,1,.1,2.55.2,1,0,1.48.2,1.48.51s-.44.51-1.32.51c-1.57,0-3.39-.07-5.46-.2-.51,0-1-.05-1.58-.05a6.92,6.92,0,0,0-1.59.17,3.87,3.87,0,0,1-.66.08c-.47,0-.71-.15-.71-.46s.53-.48,1.6-.51a4.93,4.93,0,0,0,2.33-.49,2.94,2.94,0,0,0,1.12-1.66q6.56-18.84,10.68-30.26a5.82,5.82,0,0,1,.48-1.35l.22-.93c.1-.38.23-.56.4-.56s.19.1.26.3c.44,1.33,1.45,4.1,3,8.32q1.83,4.95,9.13,24.85a2.42,2.42,0,0,0,1,1.47,7.37,7.37,0,0,0,2.63.36C646.53,345.64,647,345.8,647,346.09Zm-13.82-12.22-2.75-7.61L628,319.19q-2.16,5.65-5.18,14.68Z"/><path class="cls-1" d="M686.16,320.09c0,.44-.21.67-.61.67s-.7-.45-.87-1.33l-.21-1.84a8.81,8.81,0,0,0-1.17-3.11,5,5,0,0,0-3.52-2.14,11,11,0,0,0-2.55-.26l-2.91.1V343c0,1.22.32,2,1,2.3a9.34,9.34,0,0,0,2.86.3c.41,0,.61.18.61.44s-.27.43-.82.43a4.83,4.83,0,0,1-.71-.05c-2-.07-3.49-.1-4.34-.1-1.12,0-2.18,0-3.16.07s-2.25.08-3.78.08c-.78,0-1.17-.14-1.17-.41s.73-.48,2.19-.51q1.59,0,2-.66a5.06,5.06,0,0,0,.26-2.1V312.18a26,26,0,0,0-6.28.51q-3.21,1.19-3.77,6.28-.15,1.53-.72,1.53c-.4,0-.61-.36-.61-1.07,0-.37,0-.75.05-1.12l.1-1.18q.16-2.34.46-6.17h2.3l10.41.15c1.22,0,3.13,0,5.71,0l8.47-.15c.07,1.9.29,4.73.67,8.47a1.47,1.47,0,0,0,.05.38C686.14,320,686.16,320.06,686.16,320.09Z"/><path class="cls-1" d="M733.86,328.92a19,19,0,0,1-4.56,12.86A14.3,14.3,0,0,1,718.1,347a15.31,15.31,0,0,1-11.84-5.33,18.91,18.91,0,0,1-4.8-13.14q0-7.95,4.62-13a15.27,15.27,0,0,1,11.81-5.07,14.46,14.46,0,0,1,11.38,5.3A19.43,19.43,0,0,1,733.86,328.92Zm-5.71.26q0-9.37-3.83-14.59a7.81,7.81,0,0,0-6.68-3.27,8.07,8.07,0,0,0-6.33,2.5q-4.12,4.6-4.13,15,0,8.24,2.88,12.79a9.06,9.06,0,0,0,8.09,4.55,7.92,7.92,0,0,0,7.3-4.29Q728.15,337.1,728.15,329.18Z"/><path class="cls-1" d="M778.66,344.89c0,1.43-1.19,2.14-3.57,2.14a7.11,7.11,0,0,1-6.23-3.32,8,8,0,0,1-1.25-2.75q-.27-1.32-.84-6.74-.3-3.25-2.09-4.61t-5.82-1.46v16.08c0,.68.55,1.1,1.64,1.27.3,0,1.08.07,2.34.1.45,0,.67.14.67.41s-.29.46-.87.46h-12c-.75,0-1.12-.15-1.12-.46s.49-.37,1.48-.41c1.6,0,2.46-.23,2.6-.61a5.12,5.12,0,0,0,.2-2V314.84c0-1.36-.14-2.18-.43-2.45a5,5,0,0,0-2.63-.46c-.85,0-1.27-.15-1.27-.46s.27-.51.81-.51a3.65,3.65,0,0,1,.46.05l6.79.15q1,0,2.85-.06c1.36-.1,2.32-.14,2.86-.14a12.09,12.09,0,0,1,7.53,2.12,6.83,6.83,0,0,1,2.78,5.74,7.26,7.26,0,0,1-2.86,5.89,13.8,13.8,0,0,1-7.75,2.73q-.47,0-.51.15t.51.21c3.57.61,6,1.87,7.37,3.76s2.23,5.31,2.68,10.26q.4,4.19,2.85,4.19c.51,0,.77-.1.77-.31a.19.19,0,0,0,0-.1,2.36,2.36,0,0,1-.26-.92c0-.71.38-1.07,1.13-1.07S778.66,344,778.66,344.89ZM768.1,319.33q0-7.31-6.33-7.3a4,4,0,0,0-2.29.46,1.92,1.92,0,0,0-.62,1.63v13c3.27,0,5.62-.56,7.07-1.78S768.1,322.08,768.1,319.33Z"/><path class="cls-1" d="M814.63,336.47a9.77,9.77,0,0,1-3.34,7.47,11.43,11.43,0,0,1-8,3.09,16.93,16.93,0,0,1-6.58-1.68,4.15,4.15,0,0,0-1.53-.46c-.41,0-.66.47-.76,1.41,0,.49-.26.73-.67.73s-.51-.2-.51-.61a2.94,2.94,0,0,1,0-.61,43.31,43.31,0,0,0,.41-5.77c0-.34,0-1.29-.1-2.86a5.61,5.61,0,0,1,0-.81c0-.51.2-.77.61-.77s.58.42.71,1.24q1.33,9.17,8.63,9.17a6.39,6.39,0,0,0,4.82-1.76,6.83,6.83,0,0,0,1.71-5,7.47,7.47,0,0,0-1.66-4.88,17.28,17.28,0,0,0-5.69-4c-3.23-1.6-5.48-3.15-6.73-4.64a8.35,8.35,0,0,1-1.89-5.57,9.53,9.53,0,0,1,2.73-7,9.34,9.34,0,0,1,6.91-2.75,14.55,14.55,0,0,1,4.8,1.17A5.11,5.11,0,0,0,810,312a1,1,0,0,0,.74-.2,2.69,2.69,0,0,0,.33-1.08.55.55,0,0,1,.56-.51c.34,0,.51.21.51.62a3,3,0,0,1,0,.61,24.85,24.85,0,0,0-.15,3,23.35,23.35,0,0,0,.25,3.88l0,.81c0,.38-.12.56-.46.56s-.62-.39-.76-1.17a9.19,9.19,0,0,0-2.65-5,6.63,6.63,0,0,0-4.7-2,5.22,5.22,0,0,0-4.05,1.63,6.27,6.27,0,0,0-1.51,4.44,6.77,6.77,0,0,0,2.19,5.26,27,27,0,0,0,5.31,3.16,21.82,21.82,0,0,1,6.89,4.87A8.52,8.52,0,0,1,814.63,336.47Z"/><path class="cls-1" d="M789,285.17v0Z"/><path class="cls-1" d="M657.78,292.67q4.53-23.42,15.25-40Q691.62,224,723.57,224q25.5,0,41.16,17.13t17.21,47.06c.2,2.88,1.23,4.32,3.07,4.32q3.36,0,4-7.3c0-.39-.13-3.58-.3-9.6v-20q0-7.68,1.61-25.19c.35-3.69.54-5.84.54-6.46a2.17,2.17,0,0,0-2.46-2.45q-2.16,0-3.69,4.3-1.85,7.37-7.68,7.37-4.6,0-11.67-3.38-23.65-11.06-43.62-11.06-45.78,0-73.73,31a104.21,104.21,0,0,0-23.09,42.83Z"/><path class="cls-1" d="M811.74,368.11h-33.8q-27.95.31-32.56,0h-5.53c-4.51,0-6.76,1.13-6.76,3.37a1.9,1.9,0,0,0,1.23,2,20.51,20.51,0,0,0,5.53.45q17.21-.3,20.12,2.45t2.92,18q0,18.34-4.61,25.38-9.21,14.07-33.79,14.07-32.25,0-51.15-27.89-11.39-16.8-15.9-40.75H624q6.66,26.52,24.65,44.83,28.57,29,77.11,29,20.28,0,34.87-5.5t30.26-19v-9.79q0-22.92,1.23-26.6,1.83-5.5,16-4.89h7.07c1.84,0,2.76-.82,2.76-2.48Q817.88,368.11,811.74,368.11Z"/><path class="cls-1" d="M556.45,365.22q-5.15,25.38-18.12,40.3Q518.05,429,484.87,428.94q-23.65,0-31-3.7a5,5,0,0,1-2.61-3.08c-.31-1.23-.46-4.73-.46-10.48V365.22H420.06v48c0,6.35-.42,10.25-1.23,11.68q-3.07,4.6-15.67,4.6-9.84,0-9.83,2.77c0,2.05,1.94,3.07,5.84,3.07h83.25q46.38,0,74-22.18a95.87,95.87,0,0,0,32.72-48Z"/><path class="cls-1" d="M401.93,227.72q13.51,0,15.82,2.46t2.31,17.51v45h30.72V247.75q0-12.63,1.84-14.79,4.29-4.32,24.88-4.32,42.39,0,62.36,23.89,12.39,14.82,17.09,40.14h32.18A108,108,0,0,0,577,266.1q-17.22-27.27-45.16-36.51-23-7.71-78.34-7.71H400.09c-3.49,0-5.23.83-5.23,2.46C394.86,226.6,397.22,227.72,401.93,227.72Z"/></svg>